<mxfile host="app.diagrams.net" agent="Mozilla/5.0 (Macintosh; Intel Mac OS X 10.15; rv:129.0) Gecko/20100101 Firefox/129.0" version="24.7.7">
  <diagram name="Page-1" id="0783ab3e-0a74-02c8-0abd-f7b4e66b4bec">
    <mxGraphModel grid="1" page="1" gridSize="10" guides="1" tooltips="1" connect="1" arrows="1" fold="1" pageScale="1" pageWidth="850" pageHeight="1100" background="none" math="0" shadow="0">
      <root>
        <mxCell id="0" />
        <mxCell id="1" parent="0" />
        <mxCell id="1c1d494c118603dd-1" value="&lt;div&gt;数据模型 E-R 数据及其关系的描述&lt;/div&gt;&lt;div&gt;Data model: A description of the data and its relationships is shown in an E-R diagram&lt;/div&gt;&lt;div&gt;从Level 1到Level 3，依次从具体到抽象，展示数据实体的抽象等级。&lt;/div&gt;&lt;div&gt;From L1 to L3, from concrete to abstract, show the level of abstraction of the data.&lt;br&gt;&lt;/div&gt;" style="swimlane;html=1;childLayout=stackLayout;startSize=110;rounded=0;shadow=0;comic=0;labelBackgroundColor=none;strokeWidth=1;fontFamily=Verdana;fontSize=12;align=center;movable=1;resizable=1;rotatable=1;deletable=1;editable=1;locked=0;connectable=1;points=[[0,0,0,0,0],[0,0.25,0,0,0],[0,0.5,0,0,0],[0,0.75,0,0,0],[0,1,0,0,0],[0.25,0,0,0,0],[0.25,1,0,0,0],[0.5,0,0,0,0],[0.5,1,0,0,0],[0.75,0,0,0,0],[0.75,1,0,0,0],[1,0,0,0,0],[1,0.25,0,0,0],[1,0.5,0,0,0],[1,0.75,0,0,0],[1,1,0,0,0]];" vertex="1" parent="1">
          <mxGeometry x="-10" width="1427" height="1930" as="geometry" />
        </mxCell>
        <mxCell id="1c1d494c118603dd-2" value="Level 1" style="swimlane;html=1;startSize=20;" vertex="1" parent="1c1d494c118603dd-1">
          <mxGeometry y="110" width="307" height="1820" as="geometry" />
        </mxCell>
        <mxCell id="jTdXVIfV6DOfH2PD621m-71" value="FASTQ" style="html=1;whiteSpace=wrap;" vertex="1" parent="1c1d494c118603dd-2">
          <mxGeometry x="95" y="40" width="110" height="50" as="geometry" />
        </mxCell>
        <mxCell id="Zb2ArQLjYNTlfSsmac3W-52" style="edgeStyle=orthogonalEdgeStyle;rounded=0;orthogonalLoop=1;jettySize=auto;html=1;entryX=0.5;entryY=0;entryDx=0;entryDy=0;" edge="1" parent="1c1d494c118603dd-2" source="aQWnry6ZGIqSMwxMPUUG-14" target="Zb2ArQLjYNTlfSsmac3W-50">
          <mxGeometry relative="1" as="geometry">
            <Array as="points">
              <mxPoint x="103" y="785" />
            </Array>
          </mxGeometry>
        </mxCell>
        <mxCell id="aQWnry6ZGIqSMwxMPUUG-14" value="Action" style="rounded=1;whiteSpace=wrap;html=1;shadow=0;comic=0;labelBackgroundColor=none;strokeWidth=1;fontFamily=Verdana;fontSize=12;align=center;arcSize=50;" vertex="1" parent="1c1d494c118603dd-2">
          <mxGeometry x="53.5" y="640" width="100" height="30" as="geometry" />
        </mxCell>
        <mxCell id="aQWnry6ZGIqSMwxMPUUG-18" value="" style="endArrow=none;dashed=1;html=1;dashPattern=1 3;strokeWidth=2;rounded=0;" edge="1" parent="1c1d494c118603dd-2">
          <mxGeometry width="50" height="50" relative="1" as="geometry">
            <mxPoint x="40" y="130" as="sourcePoint" />
            <mxPoint x="1360" y="130" as="targetPoint" />
          </mxGeometry>
        </mxCell>
        <mxCell id="aQWnry6ZGIqSMwxMPUUG-20" value="&lt;p style=&quot;line-height: 120%; font-size: 11px;&quot;&gt;外部数据&lt;/p&gt;" style="text;strokeColor=none;fillColor=none;html=1;fontSize=24;fontStyle=1;verticalAlign=middle;align=center;" vertex="1" parent="1c1d494c118603dd-2">
          <mxGeometry x="-15" y="20" width="100" height="40" as="geometry" />
        </mxCell>
        <mxCell id="aQWnry6ZGIqSMwxMPUUG-63" value="" style="edgeStyle=orthogonalEdgeStyle;rounded=0;orthogonalLoop=1;jettySize=auto;html=1;" edge="1" parent="1c1d494c118603dd-2" source="aQWnry6ZGIqSMwxMPUUG-57" target="aQWnry6ZGIqSMwxMPUUG-14">
          <mxGeometry relative="1" as="geometry" />
        </mxCell>
        <mxCell id="aQWnry6ZGIqSMwxMPUUG-57" value="" style="whiteSpace=wrap;html=1;rounded=0;shadow=0;comic=0;labelBackgroundColor=none;strokeWidth=1;fillColor=#000000;fontFamily=Verdana;fontSize=12;align=center;rotation=0;" vertex="1" parent="1c1d494c118603dd-2">
          <mxGeometry x="102.5" y="440" width="147" height="10" as="geometry" />
        </mxCell>
        <mxCell id="aQWnry6ZGIqSMwxMPUUG-82" style="edgeStyle=orthogonalEdgeStyle;rounded=0;orthogonalLoop=1;jettySize=auto;html=1;entryX=0.75;entryY=0;entryDx=0;entryDy=0;" edge="1" parent="1c1d494c118603dd-2" source="aQWnry6ZGIqSMwxMPUUG-43" target="aQWnry6ZGIqSMwxMPUUG-57">
          <mxGeometry relative="1" as="geometry">
            <Array as="points">
              <mxPoint x="270" y="370" />
              <mxPoint x="213" y="370" />
            </Array>
          </mxGeometry>
        </mxCell>
        <mxCell id="aQWnry6ZGIqSMwxMPUUG-43" value="Theme: 数据复用 L1" style="swimlane;fontStyle=0;childLayout=stackLayout;horizontal=1;startSize=30;horizontalStack=0;resizeParent=1;resizeParentMax=0;resizeLast=0;collapsible=1;marginBottom=0;whiteSpace=wrap;html=1;" vertex="1" parent="1c1d494c118603dd-2">
          <mxGeometry x="200" y="240" width="140" height="60" as="geometry">
            <mxRectangle x="60" y="170" width="150" height="30" as="alternateBounds" />
          </mxGeometry>
        </mxCell>
        <mxCell id="aQWnry6ZGIqSMwxMPUUG-44" value="&lt;div&gt;&lt;span style=&quot;background-color: initial;&quot;&gt;Item: FASTQ&lt;/span&gt;&lt;br&gt;&lt;/div&gt;" style="text;strokeColor=none;fillColor=none;align=left;verticalAlign=middle;spacingLeft=4;spacingRight=4;overflow=hidden;points=[[0,0.5],[1,0.5]];portConstraint=eastwest;rotatable=0;whiteSpace=wrap;html=1;" vertex="1" parent="aQWnry6ZGIqSMwxMPUUG-43">
          <mxGeometry y="30" width="140" height="30" as="geometry" />
        </mxCell>
        <mxCell id="aQWnry6ZGIqSMwxMPUUG-81" style="edgeStyle=orthogonalEdgeStyle;rounded=0;orthogonalLoop=1;jettySize=auto;html=1;entryX=0.32;entryY=-0.1;entryDx=0;entryDy=0;entryPerimeter=0;" edge="1" parent="1c1d494c118603dd-2" source="jTdXVIfV6DOfH2PD621m-71" target="aQWnry6ZGIqSMwxMPUUG-57">
          <mxGeometry relative="1" as="geometry" />
        </mxCell>
        <mxCell id="aQWnry6ZGIqSMwxMPUUG-106" value="工具00&lt;div&gt;MakeRef&lt;br&gt;&lt;/div&gt;" style="rounded=0;whiteSpace=wrap;html=1;shadow=0;comic=0;labelBackgroundColor=none;strokeWidth=1;fontFamily=Verdana;fontSize=12;align=center;arcSize=50;" vertex="1" parent="1c1d494c118603dd-2">
          <mxGeometry x="110" y="1310" width="70" height="30" as="geometry" />
        </mxCell>
        <mxCell id="aQWnry6ZGIqSMwxMPUUG-120" value="Action" style="rounded=1;whiteSpace=wrap;html=1;shadow=0;comic=0;labelBackgroundColor=none;strokeWidth=1;fontFamily=Verdana;fontSize=12;align=center;arcSize=50;" vertex="1" parent="1c1d494c118603dd-2">
          <mxGeometry x="20" y="1400" width="100" height="30" as="geometry" />
        </mxCell>
        <mxCell id="aQWnry6ZGIqSMwxMPUUG-125" value="Reference" style="rounded=0;whiteSpace=wrap;html=1;shadow=0;comic=0;labelBackgroundColor=none;strokeWidth=1;fontFamily=Verdana;fontSize=12;align=center;arcSize=50;" vertex="1" parent="1c1d494c118603dd-2">
          <mxGeometry x="70" y="1560" width="70" height="30" as="geometry" />
        </mxCell>
        <mxCell id="aQWnry6ZGIqSMwxMPUUG-128" value="Note" style="shape=note;whiteSpace=wrap;html=1;rounded=0;shadow=0;comic=0;labelBackgroundColor=none;strokeWidth=1;fontFamily=Verdana;fontSize=12;align=center;size=20;" vertex="1" parent="1c1d494c118603dd-2">
          <mxGeometry x="131" y="1460" width="95" height="45" as="geometry" />
        </mxCell>
        <mxCell id="aQWnry6ZGIqSMwxMPUUG-129" value="" style="endArrow=none;dashed=1;html=1;rounded=0;exitX=0.861;exitY=0.975;exitDx=0;exitDy=0;exitPerimeter=0;entryX=0;entryY=0;entryDx=37.5;entryDy=0;entryPerimeter=0;" edge="1" parent="1c1d494c118603dd-2" source="aQWnry6ZGIqSMwxMPUUG-120" target="aQWnry6ZGIqSMwxMPUUG-128">
          <mxGeometry width="50" height="50" relative="1" as="geometry">
            <mxPoint x="410" y="1450" as="sourcePoint" />
            <mxPoint x="460" y="1400" as="targetPoint" />
          </mxGeometry>
        </mxCell>
        <mxCell id="aQWnry6ZGIqSMwxMPUUG-131" value="" style="endArrow=none;dashed=1;html=1;rounded=0;entryX=0.5;entryY=1;entryDx=0;entryDy=0;entryPerimeter=0;exitX=0.75;exitY=0;exitDx=0;exitDy=0;" edge="1" parent="1c1d494c118603dd-2" source="aQWnry6ZGIqSMwxMPUUG-125" target="aQWnry6ZGIqSMwxMPUUG-128">
          <mxGeometry width="50" height="50" relative="1" as="geometry">
            <mxPoint x="90" y="1570" as="sourcePoint" />
            <mxPoint x="140" y="1520" as="targetPoint" />
          </mxGeometry>
        </mxCell>
        <mxCell id="aQWnry6ZGIqSMwxMPUUG-151" value="" style="endArrow=classic;html=1;rounded=0;entryX=0.5;entryY=0;entryDx=0;entryDy=0;" edge="1" parent="1c1d494c118603dd-2" target="aQWnry6ZGIqSMwxMPUUG-125">
          <mxGeometry width="50" height="50" relative="1" as="geometry">
            <mxPoint x="60" y="1430" as="sourcePoint" />
            <mxPoint x="110" y="1380" as="targetPoint" />
          </mxGeometry>
        </mxCell>
        <mxCell id="aQWnry6ZGIqSMwxMPUUG-152" value="" style="endArrow=classic;html=1;rounded=0;entryX=0.5;entryY=0;entryDx=0;entryDy=0;exitX=0.5;exitY=1;exitDx=0;exitDy=0;" edge="1" parent="1c1d494c118603dd-2" source="aQWnry6ZGIqSMwxMPUUG-106" target="aQWnry6ZGIqSMwxMPUUG-120">
          <mxGeometry width="50" height="50" relative="1" as="geometry">
            <mxPoint x="120" y="1390" as="sourcePoint" />
            <mxPoint x="170" y="1340" as="targetPoint" />
          </mxGeometry>
        </mxCell>
        <mxCell id="Zb2ArQLjYNTlfSsmac3W-50" value="" style="whiteSpace=wrap;html=1;rounded=0;shadow=0;comic=0;labelBackgroundColor=none;strokeWidth=1;fillColor=#000000;fontFamily=Verdana;fontSize=12;align=center;rotation=-90;" vertex="1" parent="1c1d494c118603dd-2">
          <mxGeometry x="98" y="780" width="147" height="10" as="geometry" />
        </mxCell>
        <mxCell id="Zb2ArQLjYNTlfSsmac3W-78" style="edgeStyle=orthogonalEdgeStyle;rounded=0;orthogonalLoop=1;jettySize=auto;html=1;entryX=0.5;entryY=0;entryDx=0;entryDy=0;" edge="1" parent="1c1d494c118603dd-2" source="Zb2ArQLjYNTlfSsmac3W-53" target="Zb2ArQLjYNTlfSsmac3W-77">
          <mxGeometry relative="1" as="geometry" />
        </mxCell>
        <mxCell id="Zb2ArQLjYNTlfSsmac3W-53" value="Theme: Spatial L1" style="swimlane;fontStyle=0;childLayout=stackLayout;horizontal=1;startSize=30;horizontalStack=0;resizeParent=1;resizeParentMax=0;resizeLast=0;collapsible=1;marginBottom=0;whiteSpace=wrap;html=1;" vertex="1" parent="1c1d494c118603dd-2">
          <mxGeometry x="120" y="930" width="140" height="90" as="geometry">
            <mxRectangle x="70" y="365" width="100" height="30" as="alternateBounds" />
          </mxGeometry>
        </mxCell>
        <mxCell id="Zb2ArQLjYNTlfSsmac3W-54" value="Item: Image" style="text;strokeColor=none;fillColor=none;align=left;verticalAlign=middle;spacingLeft=4;spacingRight=4;overflow=hidden;points=[[0,0.5],[1,0.5]];portConstraint=eastwest;rotatable=0;whiteSpace=wrap;html=1;" vertex="1" parent="Zb2ArQLjYNTlfSsmac3W-53">
          <mxGeometry y="30" width="140" height="30" as="geometry" />
        </mxCell>
        <mxCell id="Zb2ArQLjYNTlfSsmac3W-76" value="Item: FASTQ" style="text;strokeColor=none;fillColor=none;align=left;verticalAlign=middle;spacingLeft=4;spacingRight=4;overflow=hidden;points=[[0,0.5],[1,0.5]];portConstraint=eastwest;rotatable=0;whiteSpace=wrap;html=1;" vertex="1" parent="Zb2ArQLjYNTlfSsmac3W-53">
          <mxGeometry y="60" width="140" height="30" as="geometry" />
        </mxCell>
        <mxCell id="Zb2ArQLjYNTlfSsmac3W-77" value="Action" style="rounded=1;whiteSpace=wrap;html=1;shadow=0;comic=0;labelBackgroundColor=none;strokeWidth=1;fontFamily=Verdana;fontSize=12;align=center;arcSize=50;" vertex="1" parent="1c1d494c118603dd-2">
          <mxGeometry x="140" y="1080" width="100" height="30" as="geometry" />
        </mxCell>
        <mxCell id="1c1d494c118603dd-3" value="Level 2" style="swimlane;html=1;startSize=20;" vertex="1" parent="1c1d494c118603dd-1">
          <mxGeometry x="307" y="110" width="280" height="1820" as="geometry" />
        </mxCell>
        <mxCell id="aQWnry6ZGIqSMwxMPUUG-6" value="" style="edgeStyle=orthogonalEdgeStyle;rounded=0;orthogonalLoop=1;jettySize=auto;html=1;" edge="1" parent="1c1d494c118603dd-3" source="60571a20871a0731-3" target="1c1d494c118603dd-6">
          <mxGeometry relative="1" as="geometry" />
        </mxCell>
        <mxCell id="60571a20871a0731-3" value="" style="whiteSpace=wrap;html=1;rounded=0;shadow=0;comic=0;labelBackgroundColor=none;strokeWidth=1;fillColor=#000000;fontFamily=Verdana;fontSize=12;align=center;rotation=0;" vertex="1" parent="1c1d494c118603dd-3">
          <mxGeometry x="66.5" y="150" width="147" height="10" as="geometry" />
        </mxCell>
        <mxCell id="1c1d494c118603dd-14" value="工具2&lt;div&gt;scRNA-seq&lt;/div&gt;" style="rounded=0;whiteSpace=wrap;html=1;shadow=0;comic=0;labelBackgroundColor=none;strokeWidth=1;fontFamily=Verdana;fontSize=12;align=center;arcSize=50;" vertex="1" parent="1c1d494c118603dd-3">
          <mxGeometry x="-30" y="480" width="70" height="30" as="geometry" />
        </mxCell>
        <mxCell id="jTdXVIfV6DOfH2PD621m-72" value="SRA" style="html=1;whiteSpace=wrap;" vertex="1" parent="1c1d494c118603dd-3">
          <mxGeometry x="30" y="40" width="110" height="50" as="geometry" />
        </mxCell>
        <mxCell id="jTdXVIfV6DOfH2PD621m-73" value="BAM" style="html=1;whiteSpace=wrap;" vertex="1" parent="1c1d494c118603dd-3">
          <mxGeometry x="140" y="40" width="110" height="50" as="geometry" />
        </mxCell>
        <mxCell id="1c1d494c118603dd-10" value="工具1" style="rounded=0;whiteSpace=wrap;html=1;shadow=0;comic=0;labelBackgroundColor=none;strokeWidth=1;fontFamily=Verdana;fontSize=12;align=center;arcSize=50;" vertex="1" parent="1c1d494c118603dd-3">
          <mxGeometry x="-30" y="190" width="70" height="30" as="geometry" />
        </mxCell>
        <mxCell id="aQWnry6ZGIqSMwxMPUUG-8" value="" style="edgeStyle=orthogonalEdgeStyle;rounded=0;orthogonalLoop=1;jettySize=auto;html=1;entryX=1;entryY=0.5;entryDx=0;entryDy=0;" edge="1" parent="1c1d494c118603dd-3" source="1c1d494c118603dd-6" target="1c1d494c118603dd-10">
          <mxGeometry relative="1" as="geometry" />
        </mxCell>
        <mxCell id="1c1d494c118603dd-6" value="Action" style="rounded=1;whiteSpace=wrap;html=1;shadow=0;comic=0;labelBackgroundColor=none;strokeWidth=1;fontFamily=Verdana;fontSize=12;align=center;arcSize=50;" vertex="1" parent="1c1d494c118603dd-3">
          <mxGeometry x="90" y="190" width="100" height="30" as="geometry" />
        </mxCell>
        <mxCell id="aQWnry6ZGIqSMwxMPUUG-23" value="Theme: scRNA-seq L2" style="swimlane;fontStyle=0;childLayout=stackLayout;horizontal=1;startSize=30;horizontalStack=0;resizeParent=1;resizeParentMax=0;resizeLast=0;collapsible=1;marginBottom=0;whiteSpace=wrap;html=1;" vertex="1" parent="1c1d494c118603dd-3">
          <mxGeometry x="73.5" y="290" width="140" height="90" as="geometry">
            <mxRectangle x="70" y="365" width="100" height="30" as="alternateBounds" />
          </mxGeometry>
        </mxCell>
        <mxCell id="aQWnry6ZGIqSMwxMPUUG-24" value="Item: BAM" style="text;strokeColor=none;fillColor=none;align=left;verticalAlign=middle;spacingLeft=4;spacingRight=4;overflow=hidden;points=[[0,0.5],[1,0.5]];portConstraint=eastwest;rotatable=0;whiteSpace=wrap;html=1;" vertex="1" parent="aQWnry6ZGIqSMwxMPUUG-23">
          <mxGeometry y="30" width="140" height="30" as="geometry" />
        </mxCell>
        <mxCell id="aQWnry6ZGIqSMwxMPUUG-25" value="Item:&amp;nbsp;Matrix" style="text;strokeColor=none;fillColor=none;align=left;verticalAlign=middle;spacingLeft=4;spacingRight=4;overflow=hidden;points=[[0,0.5],[1,0.5]];portConstraint=eastwest;rotatable=0;whiteSpace=wrap;html=1;" vertex="1" parent="aQWnry6ZGIqSMwxMPUUG-23">
          <mxGeometry y="60" width="140" height="30" as="geometry" />
        </mxCell>
        <mxCell id="aQWnry6ZGIqSMwxMPUUG-53" value="" style="endArrow=none;html=1;rounded=0;entryX=0.5;entryY=1;entryDx=0;entryDy=0;" edge="1" parent="1c1d494c118603dd-3" target="jTdXVIfV6DOfH2PD621m-72">
          <mxGeometry width="50" height="50" relative="1" as="geometry">
            <mxPoint x="85" y="150" as="sourcePoint" />
            <mxPoint x="135" y="100" as="targetPoint" />
          </mxGeometry>
        </mxCell>
        <mxCell id="aQWnry6ZGIqSMwxMPUUG-54" value="" style="endArrow=none;html=1;rounded=0;entryX=0.5;entryY=1;entryDx=0;entryDy=0;" edge="1" parent="1c1d494c118603dd-3">
          <mxGeometry width="50" height="50" relative="1" as="geometry">
            <mxPoint x="190" y="150" as="sourcePoint" />
            <mxPoint x="190" y="90" as="targetPoint" />
          </mxGeometry>
        </mxCell>
        <mxCell id="aQWnry6ZGIqSMwxMPUUG-85" value="" style="endArrow=classic;html=1;rounded=0;entryX=0.179;entryY=0.983;entryDx=0;entryDy=0;entryPerimeter=0;" edge="1" parent="1c1d494c118603dd-3" target="aQWnry6ZGIqSMwxMPUUG-25">
          <mxGeometry width="50" height="50" relative="1" as="geometry">
            <mxPoint x="20" y="480" as="sourcePoint" />
            <mxPoint x="70" y="430" as="targetPoint" />
          </mxGeometry>
        </mxCell>
        <mxCell id="aQWnry6ZGIqSMwxMPUUG-90" value="工具3&lt;div&gt;ATAC&lt;/div&gt;" style="rounded=0;whiteSpace=wrap;html=1;shadow=0;comic=0;labelBackgroundColor=none;strokeWidth=1;fontFamily=Verdana;fontSize=12;align=center;arcSize=50;" vertex="1" parent="1c1d494c118603dd-3">
          <mxGeometry x="-30" y="680" width="70" height="30" as="geometry" />
        </mxCell>
        <mxCell id="aQWnry6ZGIqSMwxMPUUG-92" value="Theme: ATAC L2" style="swimlane;fontStyle=0;childLayout=stackLayout;horizontal=1;startSize=30;horizontalStack=0;resizeParent=1;resizeParentMax=0;resizeLast=0;collapsible=1;marginBottom=0;whiteSpace=wrap;html=1;" vertex="1" parent="1c1d494c118603dd-3">
          <mxGeometry x="70" y="560" width="140" height="120" as="geometry">
            <mxRectangle x="70" y="365" width="100" height="30" as="alternateBounds" />
          </mxGeometry>
        </mxCell>
        <mxCell id="aQWnry6ZGIqSMwxMPUUG-93" value="Item: BAM" style="text;strokeColor=none;fillColor=none;align=left;verticalAlign=middle;spacingLeft=4;spacingRight=4;overflow=hidden;points=[[0,0.5],[1,0.5]];portConstraint=eastwest;rotatable=0;whiteSpace=wrap;html=1;" vertex="1" parent="aQWnry6ZGIqSMwxMPUUG-92">
          <mxGeometry y="30" width="140" height="30" as="geometry" />
        </mxCell>
        <mxCell id="aQWnry6ZGIqSMwxMPUUG-94" value="Item:&amp;nbsp;Matrix" style="text;strokeColor=none;fillColor=none;align=left;verticalAlign=middle;spacingLeft=4;spacingRight=4;overflow=hidden;points=[[0,0.5],[1,0.5]];portConstraint=eastwest;rotatable=0;whiteSpace=wrap;html=1;" vertex="1" parent="aQWnry6ZGIqSMwxMPUUG-92">
          <mxGeometry y="60" width="140" height="30" as="geometry" />
        </mxCell>
        <mxCell id="aQWnry6ZGIqSMwxMPUUG-97" value="Item: Peak" style="text;strokeColor=none;fillColor=none;align=left;verticalAlign=middle;spacingLeft=4;spacingRight=4;overflow=hidden;points=[[0,0.5],[1,0.5]];portConstraint=eastwest;rotatable=0;whiteSpace=wrap;html=1;" vertex="1" parent="aQWnry6ZGIqSMwxMPUUG-92">
          <mxGeometry y="90" width="140" height="30" as="geometry" />
        </mxCell>
        <mxCell id="aQWnry6ZGIqSMwxMPUUG-101" value="" style="endArrow=classic;html=1;rounded=0;entryX=-0.006;entryY=0.208;entryDx=0;entryDy=0;entryPerimeter=0;" edge="1" parent="1c1d494c118603dd-3" target="aQWnry6ZGIqSMwxMPUUG-97">
          <mxGeometry width="50" height="50" relative="1" as="geometry">
            <mxPoint x="20.840000000000003" y="680" as="sourcePoint" />
            <mxPoint x="66.49999999999986" y="630.7499999999998" as="targetPoint" />
          </mxGeometry>
        </mxCell>
        <mxCell id="aQWnry6ZGIqSMwxMPUUG-104" value="工具4&lt;div&gt;V(D)J&lt;/div&gt;" style="rounded=0;whiteSpace=wrap;html=1;shadow=0;comic=0;labelBackgroundColor=none;strokeWidth=1;fontFamily=Verdana;fontSize=12;align=center;arcSize=50;" vertex="1" parent="1c1d494c118603dd-3">
          <mxGeometry x="-30" y="880" width="70" height="30" as="geometry" />
        </mxCell>
        <mxCell id="Zb2ArQLjYNTlfSsmac3W-18" value="Theme: V(D)J L2" style="swimlane;fontStyle=0;childLayout=stackLayout;horizontal=1;startSize=30;horizontalStack=0;resizeParent=1;resizeParentMax=0;resizeLast=0;collapsible=1;marginBottom=0;whiteSpace=wrap;html=1;" vertex="1" parent="1c1d494c118603dd-3">
          <mxGeometry x="123" y="880" width="140" height="90" as="geometry">
            <mxRectangle x="70" y="365" width="100" height="30" as="alternateBounds" />
          </mxGeometry>
        </mxCell>
        <mxCell id="Zb2ArQLjYNTlfSsmac3W-19" value="Item: BAM" style="text;strokeColor=none;fillColor=none;align=left;verticalAlign=middle;spacingLeft=4;spacingRight=4;overflow=hidden;points=[[0,0.5],[1,0.5]];portConstraint=eastwest;rotatable=0;whiteSpace=wrap;html=1;" vertex="1" parent="Zb2ArQLjYNTlfSsmac3W-18">
          <mxGeometry y="30" width="140" height="30" as="geometry" />
        </mxCell>
        <mxCell id="Zb2ArQLjYNTlfSsmac3W-21" value="Item: conting" style="text;strokeColor=none;fillColor=none;align=left;verticalAlign=middle;spacingLeft=4;spacingRight=4;overflow=hidden;points=[[0,0.5],[1,0.5]];portConstraint=eastwest;rotatable=0;whiteSpace=wrap;html=1;" vertex="1" parent="Zb2ArQLjYNTlfSsmac3W-18">
          <mxGeometry y="60" width="140" height="30" as="geometry" />
        </mxCell>
        <mxCell id="Zb2ArQLjYNTlfSsmac3W-38" value="工具5&lt;div&gt;Spatial&lt;br&gt;&lt;/div&gt;" style="rounded=0;whiteSpace=wrap;html=1;shadow=0;comic=0;labelBackgroundColor=none;strokeWidth=1;fontFamily=Verdana;fontSize=12;align=center;arcSize=50;" vertex="1" parent="1c1d494c118603dd-3">
          <mxGeometry x="-30" y="1350" width="70" height="30" as="geometry" />
        </mxCell>
        <mxCell id="Zb2ArQLjYNTlfSsmac3W-47" value="Theme: Spatial L2" style="swimlane;fontStyle=0;childLayout=stackLayout;horizontal=1;startSize=30;horizontalStack=0;resizeParent=1;resizeParentMax=0;resizeLast=0;collapsible=1;marginBottom=0;whiteSpace=wrap;html=1;" vertex="1" parent="1c1d494c118603dd-3">
          <mxGeometry x="90" y="1260" width="140" height="90" as="geometry">
            <mxRectangle x="66.5" y="1220" width="100" height="30" as="alternateBounds" />
          </mxGeometry>
        </mxCell>
        <mxCell id="Zb2ArQLjYNTlfSsmac3W-48" value="Item: BAM" style="text;strokeColor=none;fillColor=none;align=left;verticalAlign=middle;spacingLeft=4;spacingRight=4;overflow=hidden;points=[[0,0.5],[1,0.5]];portConstraint=eastwest;rotatable=0;whiteSpace=wrap;html=1;" vertex="1" parent="Zb2ArQLjYNTlfSsmac3W-47">
          <mxGeometry y="30" width="140" height="30" as="geometry" />
        </mxCell>
        <mxCell id="Zb2ArQLjYNTlfSsmac3W-49" value="Item: Position(Barcode/Issue)" style="text;strokeColor=none;fillColor=none;align=left;verticalAlign=middle;spacingLeft=4;spacingRight=4;overflow=hidden;points=[[0,0.5],[1,0.5]];portConstraint=eastwest;rotatable=0;whiteSpace=wrap;html=1;" vertex="1" parent="Zb2ArQLjYNTlfSsmac3W-47">
          <mxGeometry y="60" width="140" height="30" as="geometry" />
        </mxCell>
        <mxCell id="Zb2ArQLjYNTlfSsmac3W-80" value="" style="endArrow=classic;html=1;rounded=0;exitX=0.75;exitY=0;exitDx=0;exitDy=0;entryX=-0.001;entryY=0.928;entryDx=0;entryDy=0;entryPerimeter=0;" edge="1" parent="1c1d494c118603dd-3" source="Zb2ArQLjYNTlfSsmac3W-38" target="Zb2ArQLjYNTlfSsmac3W-48">
          <mxGeometry width="50" height="50" relative="1" as="geometry">
            <mxPoint x="53" y="1140" as="sourcePoint" />
            <mxPoint x="103" y="1090" as="targetPoint" />
          </mxGeometry>
        </mxCell>
        <mxCell id="Zb2ArQLjYNTlfSsmac3W-143" value="" style="endArrow=classic;html=1;rounded=0;entryX=0;entryY=0.5;entryDx=0;entryDy=0;exitX=1;exitY=0.5;exitDx=0;exitDy=0;" edge="1" parent="1c1d494c118603dd-3" source="aQWnry6ZGIqSMwxMPUUG-104" target="Zb2ArQLjYNTlfSsmac3W-19">
          <mxGeometry width="50" height="50" relative="1" as="geometry">
            <mxPoint x="43" y="900" as="sourcePoint" />
            <mxPoint x="93" y="850" as="targetPoint" />
          </mxGeometry>
        </mxCell>
        <mxCell id="1c1d494c118603dd-4" value="Level 3" style="swimlane;html=1;startSize=20;" vertex="1" parent="1c1d494c118603dd-1">
          <mxGeometry x="587" y="110" width="280" height="1820" as="geometry">
            <mxRectangle x="500" y="20" width="40" height="970" as="alternateBounds" />
          </mxGeometry>
        </mxCell>
        <mxCell id="aQWnry6ZGIqSMwxMPUUG-19" value="&lt;div&gt;H5AD: &lt;br&gt;&lt;/div&gt;&lt;div&gt;matrix with annoation&lt;br&gt;&lt;/div&gt;" style="html=1;whiteSpace=wrap;" vertex="1" parent="1c1d494c118603dd-4">
          <mxGeometry x="80" y="40" width="110" height="50" as="geometry" />
        </mxCell>
        <mxCell id="aQWnry6ZGIqSMwxMPUUG-31" value="Theme: scRNA-seq L3" style="swimlane;fontStyle=0;childLayout=stackLayout;horizontal=1;startSize=30;horizontalStack=0;resizeParent=1;resizeParentMax=0;resizeLast=0;collapsible=1;marginBottom=0;whiteSpace=wrap;html=1;" vertex="1" parent="1c1d494c118603dd-4">
          <mxGeometry x="82.5" y="510" width="140" height="60" as="geometry">
            <mxRectangle x="70" y="365" width="100" height="30" as="alternateBounds" />
          </mxGeometry>
        </mxCell>
        <mxCell id="aQWnry6ZGIqSMwxMPUUG-32" value="Item: H5" style="text;strokeColor=none;fillColor=none;align=left;verticalAlign=middle;spacingLeft=4;spacingRight=4;overflow=hidden;points=[[0,0.5],[1,0.5]];portConstraint=eastwest;rotatable=0;whiteSpace=wrap;html=1;" vertex="1" parent="aQWnry6ZGIqSMwxMPUUG-31">
          <mxGeometry y="30" width="140" height="30" as="geometry" />
        </mxCell>
        <mxCell id="aQWnry6ZGIqSMwxMPUUG-98" value="Theme: ATAC L3" style="swimlane;fontStyle=0;childLayout=stackLayout;horizontal=1;startSize=30;horizontalStack=0;resizeParent=1;resizeParentMax=0;resizeLast=0;collapsible=1;marginBottom=0;whiteSpace=wrap;html=1;" vertex="1" parent="1c1d494c118603dd-4">
          <mxGeometry x="97.5" y="830" width="140" height="60" as="geometry">
            <mxRectangle x="70" y="365" width="100" height="30" as="alternateBounds" />
          </mxGeometry>
        </mxCell>
        <mxCell id="aQWnry6ZGIqSMwxMPUUG-99" value="Item:&amp;nbsp;&lt;span style=&quot;background-color: initial;&quot;&gt;H5&lt;/span&gt;" style="text;strokeColor=none;fillColor=none;align=left;verticalAlign=middle;spacingLeft=4;spacingRight=4;overflow=hidden;points=[[0,0.5],[1,0.5]];portConstraint=eastwest;rotatable=0;whiteSpace=wrap;html=1;" vertex="1" parent="aQWnry6ZGIqSMwxMPUUG-98">
          <mxGeometry y="30" width="140" height="30" as="geometry" />
        </mxCell>
        <mxCell id="aQWnry6ZGIqSMwxMPUUG-124" value="工具01&lt;div&gt;M2A&lt;/div&gt;" style="rounded=0;whiteSpace=wrap;html=1;shadow=0;comic=0;labelBackgroundColor=none;strokeWidth=1;fontFamily=Verdana;fontSize=12;align=center;arcSize=50;" vertex="1" parent="1c1d494c118603dd-4">
          <mxGeometry x="22.5" y="410" width="70" height="30" as="geometry" />
        </mxCell>
        <mxCell id="aQWnry6ZGIqSMwxMPUUG-121" value="Action" style="rounded=1;whiteSpace=wrap;html=1;shadow=0;comic=0;labelBackgroundColor=none;strokeWidth=1;fontFamily=Verdana;fontSize=12;align=center;arcSize=50;" vertex="1" parent="1c1d494c118603dd-4">
          <mxGeometry x="72.5" y="320" width="100" height="30" as="geometry" />
        </mxCell>
        <mxCell id="aQWnry6ZGIqSMwxMPUUG-141" value="Note" style="shape=note;whiteSpace=wrap;html=1;rounded=0;shadow=0;comic=0;labelBackgroundColor=none;strokeWidth=1;fontFamily=Verdana;fontSize=12;align=center;size=20;" vertex="1" parent="1c1d494c118603dd-4">
          <mxGeometry x="162.5" y="388" width="75" height="44" as="geometry" />
        </mxCell>
        <mxCell id="aQWnry6ZGIqSMwxMPUUG-146" value="" style="endArrow=classic;html=1;rounded=0;entryX=0.75;entryY=0;entryDx=0;entryDy=0;exitX=0.5;exitY=1;exitDx=0;exitDy=0;" edge="1" parent="1c1d494c118603dd-4" source="aQWnry6ZGIqSMwxMPUUG-121" target="aQWnry6ZGIqSMwxMPUUG-124">
          <mxGeometry width="50" height="50" relative="1" as="geometry">
            <mxPoint x="82.5" y="400" as="sourcePoint" />
            <mxPoint x="132.5" y="350" as="targetPoint" />
          </mxGeometry>
        </mxCell>
        <mxCell id="aQWnry6ZGIqSMwxMPUUG-147" value="" style="endArrow=classic;html=1;rounded=0;exitX=0.75;exitY=1;exitDx=0;exitDy=0;entryX=0.322;entryY=0;entryDx=0;entryDy=0;entryPerimeter=0;" edge="1" parent="1c1d494c118603dd-4" source="aQWnry6ZGIqSMwxMPUUG-124" target="aQWnry6ZGIqSMwxMPUUG-31">
          <mxGeometry width="50" height="50" relative="1" as="geometry">
            <mxPoint x="102.5" y="490" as="sourcePoint" />
            <mxPoint x="152.5" y="440" as="targetPoint" />
          </mxGeometry>
        </mxCell>
        <mxCell id="aQWnry6ZGIqSMwxMPUUG-148" value="" style="endArrow=none;dashed=1;html=1;dashPattern=1 3;strokeWidth=2;rounded=0;exitX=0.75;exitY=1;exitDx=0;exitDy=0;entryX=0.25;entryY=-0.019;entryDx=0;entryDy=0;entryPerimeter=0;" edge="1" parent="1c1d494c118603dd-4" source="aQWnry6ZGIqSMwxMPUUG-121" target="aQWnry6ZGIqSMwxMPUUG-141">
          <mxGeometry width="50" height="50" relative="1" as="geometry">
            <mxPoint x="102.5" y="460" as="sourcePoint" />
            <mxPoint x="152.5" y="410" as="targetPoint" />
          </mxGeometry>
        </mxCell>
        <mxCell id="aQWnry6ZGIqSMwxMPUUG-149" value="" style="endArrow=none;dashed=1;html=1;dashPattern=1 3;strokeWidth=2;rounded=0;entryX=0;entryY=0.5;entryDx=0;entryDy=0;entryPerimeter=0;exitX=1.039;exitY=0.561;exitDx=0;exitDy=0;exitPerimeter=0;" edge="1" parent="1c1d494c118603dd-4" source="aQWnry6ZGIqSMwxMPUUG-124" target="aQWnry6ZGIqSMwxMPUUG-141">
          <mxGeometry width="50" height="50" relative="1" as="geometry">
            <mxPoint x="162.5" y="510" as="sourcePoint" />
            <mxPoint x="212.5" y="460" as="targetPoint" />
          </mxGeometry>
        </mxCell>
        <mxCell id="Zb2ArQLjYNTlfSsmac3W-1" value="" style="endArrow=classic;html=1;rounded=0;entryX=0.75;entryY=0;entryDx=0;entryDy=0;exitX=0.5;exitY=1;exitDx=0;exitDy=0;" edge="1" parent="1c1d494c118603dd-4" source="Zb2ArQLjYNTlfSsmac3W-8" target="Zb2ArQLjYNTlfSsmac3W-7">
          <mxGeometry width="50" height="50" relative="1" as="geometry">
            <mxPoint x="90" y="740" as="sourcePoint" />
            <mxPoint x="140" y="690" as="targetPoint" />
          </mxGeometry>
        </mxCell>
        <mxCell id="Zb2ArQLjYNTlfSsmac3W-2" value="" style="endArrow=classic;html=1;rounded=0;exitX=0.75;exitY=1;exitDx=0;exitDy=0;entryX=0.25;entryY=0;entryDx=0;entryDy=0;" edge="1" parent="1c1d494c118603dd-4" source="Zb2ArQLjYNTlfSsmac3W-7" target="aQWnry6ZGIqSMwxMPUUG-98">
          <mxGeometry width="50" height="50" relative="1" as="geometry">
            <mxPoint x="110" y="830" as="sourcePoint" />
            <mxPoint x="135.07999999999993" y="850" as="targetPoint" />
          </mxGeometry>
        </mxCell>
        <mxCell id="Zb2ArQLjYNTlfSsmac3W-3" value="" style="endArrow=none;dashed=1;html=1;dashPattern=1 3;strokeWidth=2;rounded=0;exitX=0.75;exitY=1;exitDx=0;exitDy=0;entryX=0.25;entryY=-0.019;entryDx=0;entryDy=0;entryPerimeter=0;" edge="1" parent="1c1d494c118603dd-4" source="Zb2ArQLjYNTlfSsmac3W-8" target="Zb2ArQLjYNTlfSsmac3W-9">
          <mxGeometry width="50" height="50" relative="1" as="geometry">
            <mxPoint x="110" y="800" as="sourcePoint" />
            <mxPoint x="160" y="750" as="targetPoint" />
          </mxGeometry>
        </mxCell>
        <mxCell id="Zb2ArQLjYNTlfSsmac3W-4" value="" style="endArrow=none;dashed=1;html=1;dashPattern=1 3;strokeWidth=2;rounded=0;entryX=0;entryY=0.5;entryDx=0;entryDy=0;entryPerimeter=0;exitX=1.039;exitY=0.561;exitDx=0;exitDy=0;exitPerimeter=0;" edge="1" parent="1c1d494c118603dd-4" source="Zb2ArQLjYNTlfSsmac3W-7" target="Zb2ArQLjYNTlfSsmac3W-9">
          <mxGeometry width="50" height="50" relative="1" as="geometry">
            <mxPoint x="170" y="850" as="sourcePoint" />
            <mxPoint x="220" y="800" as="targetPoint" />
          </mxGeometry>
        </mxCell>
        <mxCell id="Zb2ArQLjYNTlfSsmac3W-7" value="工具02&lt;div&gt;Matac2A&lt;/div&gt;" style="rounded=0;whiteSpace=wrap;html=1;shadow=0;comic=0;labelBackgroundColor=none;strokeWidth=1;fontFamily=Verdana;fontSize=12;align=center;arcSize=50;" vertex="1" parent="1c1d494c118603dd-4">
          <mxGeometry x="30" y="750" width="70" height="30" as="geometry" />
        </mxCell>
        <mxCell id="Zb2ArQLjYNTlfSsmac3W-8" value="Action" style="rounded=1;whiteSpace=wrap;html=1;shadow=0;comic=0;labelBackgroundColor=none;strokeWidth=1;fontFamily=Verdana;fontSize=12;align=center;arcSize=50;" vertex="1" parent="1c1d494c118603dd-4">
          <mxGeometry x="80" y="660" width="100" height="30" as="geometry" />
        </mxCell>
        <mxCell id="Zb2ArQLjYNTlfSsmac3W-9" value="Note" style="shape=note;whiteSpace=wrap;html=1;rounded=0;shadow=0;comic=0;labelBackgroundColor=none;strokeWidth=1;fontFamily=Verdana;fontSize=12;align=center;size=20;" vertex="1" parent="1c1d494c118603dd-4">
          <mxGeometry x="170" y="728" width="75" height="44" as="geometry" />
        </mxCell>
        <mxCell id="Zb2ArQLjYNTlfSsmac3W-23" value="Theme:&amp;nbsp;V(D)J L3" style="swimlane;fontStyle=0;childLayout=stackLayout;horizontal=1;startSize=30;horizontalStack=0;resizeParent=1;resizeParentMax=0;resizeLast=0;collapsible=1;marginBottom=0;whiteSpace=wrap;html=1;" vertex="1" parent="1c1d494c118603dd-4">
          <mxGeometry x="107.5" y="1200" width="140" height="60" as="geometry">
            <mxRectangle x="70" y="365" width="100" height="30" as="alternateBounds" />
          </mxGeometry>
        </mxCell>
        <mxCell id="Zb2ArQLjYNTlfSsmac3W-24" value="Item: &lt;span style=&quot;background-color: initial;&quot;&gt;Filtered conting annoation&lt;br&gt;&lt;/span&gt;" style="text;strokeColor=none;fillColor=none;align=left;verticalAlign=middle;spacingLeft=4;spacingRight=4;overflow=hidden;points=[[0,0.5],[1,0.5]];portConstraint=eastwest;rotatable=0;whiteSpace=wrap;html=1;" vertex="1" parent="Zb2ArQLjYNTlfSsmac3W-23">
          <mxGeometry y="30" width="140" height="30" as="geometry" />
        </mxCell>
        <mxCell id="Zb2ArQLjYNTlfSsmac3W-25" value="" style="endArrow=classic;html=1;rounded=0;entryX=0.75;entryY=0;entryDx=0;entryDy=0;exitX=0.5;exitY=1;exitDx=0;exitDy=0;" edge="1" parent="1c1d494c118603dd-4" source="Zb2ArQLjYNTlfSsmac3W-30" target="Zb2ArQLjYNTlfSsmac3W-29">
          <mxGeometry width="50" height="50" relative="1" as="geometry">
            <mxPoint x="92.5" y="1090" as="sourcePoint" />
            <mxPoint x="142.5" y="1040" as="targetPoint" />
          </mxGeometry>
        </mxCell>
        <mxCell id="Zb2ArQLjYNTlfSsmac3W-26" value="" style="endArrow=classic;html=1;rounded=0;exitX=0.75;exitY=1;exitDx=0;exitDy=0;entryX=0.322;entryY=0;entryDx=0;entryDy=0;entryPerimeter=0;" edge="1" parent="1c1d494c118603dd-4" source="Zb2ArQLjYNTlfSsmac3W-29">
          <mxGeometry width="50" height="50" relative="1" as="geometry">
            <mxPoint x="112.5" y="1180" as="sourcePoint" />
            <mxPoint x="137.57999999999993" y="1200" as="targetPoint" />
          </mxGeometry>
        </mxCell>
        <mxCell id="Zb2ArQLjYNTlfSsmac3W-27" value="" style="endArrow=none;dashed=1;html=1;dashPattern=1 3;strokeWidth=2;rounded=0;exitX=0.75;exitY=1;exitDx=0;exitDy=0;entryX=0.25;entryY=-0.019;entryDx=0;entryDy=0;entryPerimeter=0;" edge="1" parent="1c1d494c118603dd-4" source="Zb2ArQLjYNTlfSsmac3W-30" target="Zb2ArQLjYNTlfSsmac3W-31">
          <mxGeometry width="50" height="50" relative="1" as="geometry">
            <mxPoint x="112.5" y="1150" as="sourcePoint" />
            <mxPoint x="162.5" y="1100" as="targetPoint" />
          </mxGeometry>
        </mxCell>
        <mxCell id="Zb2ArQLjYNTlfSsmac3W-28" value="" style="endArrow=none;dashed=1;html=1;dashPattern=1 3;strokeWidth=2;rounded=0;entryX=0;entryY=0.5;entryDx=0;entryDy=0;entryPerimeter=0;exitX=1.039;exitY=0.561;exitDx=0;exitDy=0;exitPerimeter=0;" edge="1" parent="1c1d494c118603dd-4" source="Zb2ArQLjYNTlfSsmac3W-29" target="Zb2ArQLjYNTlfSsmac3W-31">
          <mxGeometry width="50" height="50" relative="1" as="geometry">
            <mxPoint x="172.5" y="1200" as="sourcePoint" />
            <mxPoint x="222.5" y="1150" as="targetPoint" />
          </mxGeometry>
        </mxCell>
        <mxCell id="Zb2ArQLjYNTlfSsmac3W-29" value="工具03&lt;div&gt;MV(D)J2A&lt;/div&gt;" style="rounded=0;whiteSpace=wrap;html=1;shadow=0;comic=0;labelBackgroundColor=none;strokeWidth=1;fontFamily=Verdana;fontSize=12;align=center;arcSize=50;" vertex="1" parent="1c1d494c118603dd-4">
          <mxGeometry x="32.5" y="1100" width="70" height="30" as="geometry" />
        </mxCell>
        <mxCell id="Zb2ArQLjYNTlfSsmac3W-30" value="Action" style="rounded=1;whiteSpace=wrap;html=1;shadow=0;comic=0;labelBackgroundColor=none;strokeWidth=1;fontFamily=Verdana;fontSize=12;align=center;arcSize=50;" vertex="1" parent="1c1d494c118603dd-4">
          <mxGeometry x="82.5" y="1010" width="100" height="30" as="geometry" />
        </mxCell>
        <mxCell id="Zb2ArQLjYNTlfSsmac3W-31" value="Note" style="shape=note;whiteSpace=wrap;html=1;rounded=0;shadow=0;comic=0;labelBackgroundColor=none;strokeWidth=1;fontFamily=Verdana;fontSize=12;align=center;size=20;" vertex="1" parent="1c1d494c118603dd-4">
          <mxGeometry x="172.5" y="1078" width="75" height="44" as="geometry" />
        </mxCell>
        <mxCell id="Zb2ArQLjYNTlfSsmac3W-66" value="Theme: Spatial L3" style="swimlane;fontStyle=0;childLayout=stackLayout;horizontal=1;startSize=30;horizontalStack=0;resizeParent=1;resizeParentMax=0;resizeLast=0;collapsible=1;marginBottom=0;whiteSpace=wrap;html=1;" vertex="1" parent="1c1d494c118603dd-4">
          <mxGeometry x="100" y="1570" width="140" height="60" as="geometry">
            <mxRectangle x="70" y="365" width="100" height="30" as="alternateBounds" />
          </mxGeometry>
        </mxCell>
        <mxCell id="Zb2ArQLjYNTlfSsmac3W-67" value="Item: &lt;span style=&quot;background-color: initial;&quot;&gt;H5&lt;br&gt;&lt;/span&gt;" style="text;strokeColor=none;fillColor=none;align=left;verticalAlign=middle;spacingLeft=4;spacingRight=4;overflow=hidden;points=[[0,0.5],[1,0.5]];portConstraint=eastwest;rotatable=0;whiteSpace=wrap;html=1;" vertex="1" parent="Zb2ArQLjYNTlfSsmac3W-66">
          <mxGeometry y="30" width="140" height="30" as="geometry" />
        </mxCell>
        <mxCell id="Zb2ArQLjYNTlfSsmac3W-68" value="" style="endArrow=classic;html=1;rounded=0;entryX=0.75;entryY=0;entryDx=0;entryDy=0;exitX=0.5;exitY=1;exitDx=0;exitDy=0;" edge="1" parent="1c1d494c118603dd-4" source="Zb2ArQLjYNTlfSsmac3W-73" target="Zb2ArQLjYNTlfSsmac3W-72">
          <mxGeometry width="50" height="50" relative="1" as="geometry">
            <mxPoint x="85" y="1460" as="sourcePoint" />
            <mxPoint x="135" y="1410" as="targetPoint" />
          </mxGeometry>
        </mxCell>
        <mxCell id="Zb2ArQLjYNTlfSsmac3W-69" value="" style="endArrow=classic;html=1;rounded=0;exitX=0.75;exitY=1;exitDx=0;exitDy=0;entryX=0.322;entryY=0;entryDx=0;entryDy=0;entryPerimeter=0;" edge="1" parent="1c1d494c118603dd-4" source="Zb2ArQLjYNTlfSsmac3W-72">
          <mxGeometry width="50" height="50" relative="1" as="geometry">
            <mxPoint x="105" y="1550" as="sourcePoint" />
            <mxPoint x="130.07999999999993" y="1570" as="targetPoint" />
          </mxGeometry>
        </mxCell>
        <mxCell id="Zb2ArQLjYNTlfSsmac3W-70" value="" style="endArrow=none;dashed=1;html=1;dashPattern=1 3;strokeWidth=2;rounded=0;exitX=0.75;exitY=1;exitDx=0;exitDy=0;entryX=0.25;entryY=-0.019;entryDx=0;entryDy=0;entryPerimeter=0;" edge="1" parent="1c1d494c118603dd-4" source="Zb2ArQLjYNTlfSsmac3W-73" target="Zb2ArQLjYNTlfSsmac3W-74">
          <mxGeometry width="50" height="50" relative="1" as="geometry">
            <mxPoint x="105" y="1520" as="sourcePoint" />
            <mxPoint x="155" y="1470" as="targetPoint" />
          </mxGeometry>
        </mxCell>
        <mxCell id="Zb2ArQLjYNTlfSsmac3W-71" value="" style="endArrow=none;dashed=1;html=1;dashPattern=1 3;strokeWidth=2;rounded=0;entryX=0;entryY=0.5;entryDx=0;entryDy=0;entryPerimeter=0;exitX=1.039;exitY=0.561;exitDx=0;exitDy=0;exitPerimeter=0;" edge="1" parent="1c1d494c118603dd-4" source="Zb2ArQLjYNTlfSsmac3W-72" target="Zb2ArQLjYNTlfSsmac3W-74">
          <mxGeometry width="50" height="50" relative="1" as="geometry">
            <mxPoint x="165" y="1570" as="sourcePoint" />
            <mxPoint x="215" y="1520" as="targetPoint" />
          </mxGeometry>
        </mxCell>
        <mxCell id="Zb2ArQLjYNTlfSsmac3W-72" value="工具03&lt;div&gt;MSpatial2A&lt;/div&gt;" style="rounded=0;whiteSpace=wrap;html=1;shadow=0;comic=0;labelBackgroundColor=none;strokeWidth=1;fontFamily=Verdana;fontSize=12;align=center;arcSize=50;" vertex="1" parent="1c1d494c118603dd-4">
          <mxGeometry x="25" y="1470" width="70" height="30" as="geometry" />
        </mxCell>
        <mxCell id="Zb2ArQLjYNTlfSsmac3W-73" value="Action" style="rounded=1;whiteSpace=wrap;html=1;shadow=0;comic=0;labelBackgroundColor=none;strokeWidth=1;fontFamily=Verdana;fontSize=12;align=center;arcSize=50;" vertex="1" parent="1c1d494c118603dd-4">
          <mxGeometry x="75" y="1380" width="100" height="30" as="geometry" />
        </mxCell>
        <mxCell id="Zb2ArQLjYNTlfSsmac3W-74" value="Note" style="shape=note;whiteSpace=wrap;html=1;rounded=0;shadow=0;comic=0;labelBackgroundColor=none;strokeWidth=1;fontFamily=Verdana;fontSize=12;align=center;size=20;" vertex="1" parent="1c1d494c118603dd-4">
          <mxGeometry x="165" y="1448" width="75" height="44" as="geometry" />
        </mxCell>
        <mxCell id="hRGTFAAXsXebKbY3N1nc-5" value="Level 4" style="swimlane;html=1;startSize=20;" vertex="1" parent="1c1d494c118603dd-1">
          <mxGeometry x="867" y="110" width="280" height="1820" as="geometry">
            <mxRectangle x="500" y="20" width="40" height="970" as="alternateBounds" />
          </mxGeometry>
        </mxCell>
        <mxCell id="Zb2ArQLjYNTlfSsmac3W-83" value="ATLAS" style="html=1;whiteSpace=wrap;" vertex="1" parent="hRGTFAAXsXebKbY3N1nc-5">
          <mxGeometry x="85" y="40" width="110" height="50" as="geometry" />
        </mxCell>
        <mxCell id="Zb2ArQLjYNTlfSsmac3W-101" value="" style="edgeStyle=orthogonalEdgeStyle;rounded=0;orthogonalLoop=1;jettySize=auto;html=1;" edge="1" parent="hRGTFAAXsXebKbY3N1nc-5" source="Zb2ArQLjYNTlfSsmac3W-90" target="Zb2ArQLjYNTlfSsmac3W-100">
          <mxGeometry relative="1" as="geometry" />
        </mxCell>
        <mxCell id="Zb2ArQLjYNTlfSsmac3W-90" value="" style="whiteSpace=wrap;html=1;rounded=0;shadow=0;comic=0;labelBackgroundColor=none;strokeWidth=1;fillColor=#000000;fontFamily=Verdana;fontSize=12;align=center;rotation=0;" vertex="1" parent="hRGTFAAXsXebKbY3N1nc-5">
          <mxGeometry x="103" y="510" width="147" height="10" as="geometry" />
        </mxCell>
        <mxCell id="Zb2ArQLjYNTlfSsmac3W-100" value="Action" style="rounded=1;whiteSpace=wrap;html=1;shadow=0;comic=0;labelBackgroundColor=none;strokeWidth=1;fontFamily=Verdana;fontSize=12;align=center;arcSize=50;" vertex="1" parent="hRGTFAAXsXebKbY3N1nc-5">
          <mxGeometry x="126.5" y="630" width="100" height="30" as="geometry" />
        </mxCell>
        <mxCell id="Zb2ArQLjYNTlfSsmac3W-102" value="Theme: ATLAS L4" style="swimlane;fontStyle=0;childLayout=stackLayout;horizontal=1;startSize=30;horizontalStack=0;resizeParent=1;resizeParentMax=0;resizeLast=0;collapsible=1;marginBottom=0;whiteSpace=wrap;html=1;" vertex="1" parent="hRGTFAAXsXebKbY3N1nc-5">
          <mxGeometry x="106.5" y="910" width="140" height="60" as="geometry">
            <mxRectangle x="70" y="365" width="100" height="30" as="alternateBounds" />
          </mxGeometry>
        </mxCell>
        <mxCell id="Zb2ArQLjYNTlfSsmac3W-103" value="Item:&amp;nbsp;&lt;span style=&quot;background-color: initial;&quot;&gt;H5&lt;/span&gt;" style="text;strokeColor=none;fillColor=none;align=left;verticalAlign=middle;spacingLeft=4;spacingRight=4;overflow=hidden;points=[[0,0.5],[1,0.5]];portConstraint=eastwest;rotatable=0;whiteSpace=wrap;html=1;" vertex="1" parent="Zb2ArQLjYNTlfSsmac3W-102">
          <mxGeometry y="30" width="140" height="30" as="geometry" />
        </mxCell>
        <mxCell id="Zb2ArQLjYNTlfSsmac3W-105" value="工具90&lt;div&gt;Integration&lt;/div&gt;" style="rounded=0;whiteSpace=wrap;html=1;shadow=0;comic=0;labelBackgroundColor=none;strokeWidth=1;fontFamily=Verdana;fontSize=12;align=center;arcSize=50;" vertex="1" parent="hRGTFAAXsXebKbY3N1nc-5">
          <mxGeometry x="63" y="800" width="70" height="30" as="geometry" />
        </mxCell>
        <mxCell id="Zb2ArQLjYNTlfSsmac3W-108" value="Note" style="shape=note;whiteSpace=wrap;html=1;rounded=0;shadow=0;comic=0;labelBackgroundColor=none;strokeWidth=1;fontFamily=Verdana;fontSize=12;align=center;size=20;" vertex="1" parent="hRGTFAAXsXebKbY3N1nc-5">
          <mxGeometry x="190" y="730" width="80" height="46.93" as="geometry" />
        </mxCell>
        <mxCell id="Zb2ArQLjYNTlfSsmac3W-109" value="" style="endArrow=none;dashed=1;html=1;dashPattern=1 3;strokeWidth=2;rounded=0;entryX=0.75;entryY=1;entryDx=0;entryDy=0;exitX=0.5;exitY=0;exitDx=0;exitDy=0;exitPerimeter=0;" edge="1" parent="hRGTFAAXsXebKbY3N1nc-5" source="Zb2ArQLjYNTlfSsmac3W-108" target="Zb2ArQLjYNTlfSsmac3W-100">
          <mxGeometry width="50" height="50" relative="1" as="geometry">
            <mxPoint x="223" y="850" as="sourcePoint" />
            <mxPoint x="253" y="790" as="targetPoint" />
          </mxGeometry>
        </mxCell>
        <mxCell id="Zb2ArQLjYNTlfSsmac3W-110" value="" style="endArrow=none;dashed=1;html=1;dashPattern=1 3;strokeWidth=2;rounded=0;entryX=0.5;entryY=1;entryDx=0;entryDy=0;entryPerimeter=0;exitX=1;exitY=0.25;exitDx=0;exitDy=0;" edge="1" parent="hRGTFAAXsXebKbY3N1nc-5" source="Zb2ArQLjYNTlfSsmac3W-105" target="Zb2ArQLjYNTlfSsmac3W-108">
          <mxGeometry width="50" height="50" relative="1" as="geometry">
            <mxPoint x="173" y="880" as="sourcePoint" />
            <mxPoint x="223" y="830" as="targetPoint" />
          </mxGeometry>
        </mxCell>
        <mxCell id="Zb2ArQLjYNTlfSsmac3W-112" value="" style="endArrow=classic;html=1;rounded=0;exitX=0.395;exitY=1.016;exitDx=0;exitDy=0;entryX=0.5;entryY=0;entryDx=0;entryDy=0;exitPerimeter=0;" edge="1" parent="hRGTFAAXsXebKbY3N1nc-5" source="Zb2ArQLjYNTlfSsmac3W-100" target="Zb2ArQLjYNTlfSsmac3W-105">
          <mxGeometry width="50" height="50" relative="1" as="geometry">
            <mxPoint x="143" y="700" as="sourcePoint" />
            <mxPoint x="193" y="650" as="targetPoint" />
          </mxGeometry>
        </mxCell>
        <mxCell id="Zb2ArQLjYNTlfSsmac3W-114" value="" style="endArrow=classic;html=1;rounded=0;exitX=0.5;exitY=1;exitDx=0;exitDy=0;entryX=0.5;entryY=0;entryDx=0;entryDy=0;" edge="1" parent="hRGTFAAXsXebKbY3N1nc-5" source="Zb2ArQLjYNTlfSsmac3W-105" target="Zb2ArQLjYNTlfSsmac3W-102">
          <mxGeometry width="50" height="50" relative="1" as="geometry">
            <mxPoint x="173" y="970" as="sourcePoint" />
            <mxPoint x="223" y="920" as="targetPoint" />
          </mxGeometry>
        </mxCell>
        <mxCell id="Zb2ArQLjYNTlfSsmac3W-145" style="edgeStyle=orthogonalEdgeStyle;rounded=0;orthogonalLoop=1;jettySize=auto;html=1;entryX=0.882;entryY=0.049;entryDx=0;entryDy=0;entryPerimeter=0;" edge="1" parent="hRGTFAAXsXebKbY3N1nc-5">
          <mxGeometry relative="1" as="geometry">
            <mxPoint x="140.99999999999955" y="89" as="sourcePoint" />
            <mxPoint x="233.65399999999954" y="509.49" as="targetPoint" />
            <Array as="points">
              <mxPoint x="141" y="239" />
              <mxPoint x="234" y="239" />
            </Array>
          </mxGeometry>
        </mxCell>
        <mxCell id="aQWnry6ZGIqSMwxMPUUG-51" value="" style="endArrow=classic;html=1;rounded=0;exitX=0.25;exitY=1;exitDx=0;exitDy=0;entryX=0.5;entryY=0;entryDx=0;entryDy=0;" edge="1" parent="1c1d494c118603dd-1" source="1c1d494c118603dd-10" target="aQWnry6ZGIqSMwxMPUUG-43">
          <mxGeometry width="50" height="50" relative="1" as="geometry">
            <mxPoint x="195" y="350" as="sourcePoint" />
            <mxPoint x="245" y="300" as="targetPoint" />
          </mxGeometry>
        </mxCell>
        <mxCell id="aQWnry6ZGIqSMwxMPUUG-89" value="" style="endArrow=classic;html=1;rounded=0;exitX=1;exitY=0.5;exitDx=0;exitDy=0;entryX=0;entryY=0.5;entryDx=0;entryDy=0;" edge="1" parent="1c1d494c118603dd-1" source="1c1d494c118603dd-14" target="aQWnry6ZGIqSMwxMPUUG-31">
          <mxGeometry width="50" height="50" relative="1" as="geometry">
            <mxPoint x="490" y="620" as="sourcePoint" />
            <mxPoint x="540" y="570" as="targetPoint" />
          </mxGeometry>
        </mxCell>
        <mxCell id="aQWnry6ZGIqSMwxMPUUG-102" value="" style="endArrow=classic;html=1;rounded=0;exitX=1;exitY=0.5;exitDx=0;exitDy=0;entryX=0;entryY=0.5;entryDx=0;entryDy=0;" edge="1" parent="1c1d494c118603dd-1" source="aQWnry6ZGIqSMwxMPUUG-90" target="aQWnry6ZGIqSMwxMPUUG-98">
          <mxGeometry width="50" height="50" relative="1" as="geometry">
            <mxPoint x="360" y="825" as="sourcePoint" />
            <mxPoint x="665" y="670" as="targetPoint" />
          </mxGeometry>
        </mxCell>
        <mxCell id="Zb2ArQLjYNTlfSsmac3W-17" style="edgeStyle=orthogonalEdgeStyle;rounded=0;orthogonalLoop=1;jettySize=auto;html=1;entryX=0.5;entryY=0;entryDx=0;entryDy=0;" edge="1" parent="1c1d494c118603dd-1" source="aQWnry6ZGIqSMwxMPUUG-92" target="Zb2ArQLjYNTlfSsmac3W-8">
          <mxGeometry relative="1" as="geometry">
            <mxPoint x="680" y="785" as="targetPoint" />
            <Array as="points">
              <mxPoint x="717" y="730" />
            </Array>
          </mxGeometry>
        </mxCell>
        <mxCell id="Zb2ArQLjYNTlfSsmac3W-22" value="" style="endArrow=classic;html=1;rounded=0;exitX=0.75;exitY=1;exitDx=0;exitDy=0;entryX=0;entryY=0.5;entryDx=0;entryDy=0;" edge="1" parent="1c1d494c118603dd-1" source="aQWnry6ZGIqSMwxMPUUG-104" target="Zb2ArQLjYNTlfSsmac3W-23">
          <mxGeometry width="50" height="50" relative="1" as="geometry">
            <mxPoint x="680" y="1010" as="sourcePoint" />
            <mxPoint x="730" y="960" as="targetPoint" />
          </mxGeometry>
        </mxCell>
        <mxCell id="Zb2ArQLjYNTlfSsmac3W-34" style="edgeStyle=orthogonalEdgeStyle;rounded=0;orthogonalLoop=1;jettySize=auto;html=1;entryX=0.5;entryY=0;entryDx=0;entryDy=0;" edge="1" parent="1c1d494c118603dd-1" source="Zb2ArQLjYNTlfSsmac3W-18" target="Zb2ArQLjYNTlfSsmac3W-30">
          <mxGeometry relative="1" as="geometry" />
        </mxCell>
        <mxCell id="Zb2ArQLjYNTlfSsmac3W-41" style="edgeStyle=orthogonalEdgeStyle;rounded=0;orthogonalLoop=1;jettySize=auto;html=1;entryX=0;entryY=0.5;entryDx=0;entryDy=0;" edge="1" parent="1c1d494c118603dd-1" target="aQWnry6ZGIqSMwxMPUUG-90">
          <mxGeometry relative="1" as="geometry">
            <mxPoint x="177" y="895" as="sourcePoint" />
          </mxGeometry>
        </mxCell>
        <mxCell id="Zb2ArQLjYNTlfSsmac3W-42" style="edgeStyle=orthogonalEdgeStyle;rounded=0;orthogonalLoop=1;jettySize=auto;html=1;entryX=0;entryY=0.5;entryDx=0;entryDy=0;" edge="1" parent="1c1d494c118603dd-1" target="aQWnry6ZGIqSMwxMPUUG-104">
          <mxGeometry relative="1" as="geometry">
            <mxPoint x="177" y="895" as="sourcePoint" />
          </mxGeometry>
        </mxCell>
        <mxCell id="Zb2ArQLjYNTlfSsmac3W-44" style="edgeStyle=orthogonalEdgeStyle;rounded=0;orthogonalLoop=1;jettySize=auto;html=1;entryX=0;entryY=0.5;entryDx=0;entryDy=0;exitX=0.75;exitY=1;exitDx=0;exitDy=0;" edge="1" parent="1c1d494c118603dd-1" source="Zb2ArQLjYNTlfSsmac3W-50" target="1c1d494c118603dd-14">
          <mxGeometry relative="1" as="geometry">
            <mxPoint x="177" y="895" as="sourcePoint" />
            <Array as="points">
              <mxPoint x="177" y="896" />
              <mxPoint x="227" y="896" />
              <mxPoint x="227" y="605" />
            </Array>
          </mxGeometry>
        </mxCell>
        <mxCell id="Zb2ArQLjYNTlfSsmac3W-79" value="" style="endArrow=classic;html=1;rounded=0;exitX=0.75;exitY=1;exitDx=0;exitDy=0;entryX=0;entryY=0.5;entryDx=0;entryDy=0;" edge="1" parent="1c1d494c118603dd-1" source="Zb2ArQLjYNTlfSsmac3W-77" target="Zb2ArQLjYNTlfSsmac3W-38">
          <mxGeometry width="50" height="50" relative="1" as="geometry">
            <mxPoint x="420" y="1180" as="sourcePoint" />
            <mxPoint x="470" y="1130" as="targetPoint" />
          </mxGeometry>
        </mxCell>
        <mxCell id="Zb2ArQLjYNTlfSsmac3W-81" value="" style="endArrow=classic;html=1;rounded=0;exitX=1;exitY=0.75;exitDx=0;exitDy=0;entryX=0;entryY=0.5;entryDx=0;entryDy=0;" edge="1" parent="1c1d494c118603dd-1" source="Zb2ArQLjYNTlfSsmac3W-38" target="Zb2ArQLjYNTlfSsmac3W-66">
          <mxGeometry width="50" height="50" relative="1" as="geometry">
            <mxPoint x="570" y="1230" as="sourcePoint" />
            <mxPoint x="620" y="1180" as="targetPoint" />
          </mxGeometry>
        </mxCell>
        <mxCell id="Zb2ArQLjYNTlfSsmac3W-82" style="edgeStyle=orthogonalEdgeStyle;rounded=0;orthogonalLoop=1;jettySize=auto;html=1;entryX=0.5;entryY=0;entryDx=0;entryDy=0;" edge="1" parent="1c1d494c118603dd-1" source="Zb2ArQLjYNTlfSsmac3W-47" target="Zb2ArQLjYNTlfSsmac3W-73">
          <mxGeometry relative="1" as="geometry" />
        </mxCell>
        <mxCell id="Zb2ArQLjYNTlfSsmac3W-131" style="edgeStyle=orthogonalEdgeStyle;rounded=0;orthogonalLoop=1;jettySize=auto;html=1;" edge="1" parent="1c1d494c118603dd-1">
          <mxGeometry relative="1" as="geometry">
            <mxPoint x="1040.5333333333333" y="1080" as="sourcePoint" />
            <mxPoint x="1247" y="920" as="targetPoint" />
            <Array as="points">
              <mxPoint x="1041" y="1110" />
              <mxPoint x="1175" y="1110" />
              <mxPoint x="1175" y="860" />
              <mxPoint x="1247" y="860" />
            </Array>
          </mxGeometry>
        </mxCell>
        <mxCell id="Zb2ArQLjYNTlfSsmac3W-141" style="edgeStyle=orthogonalEdgeStyle;rounded=0;orthogonalLoop=1;jettySize=auto;html=1;entryX=0;entryY=0.5;entryDx=0;entryDy=0;" edge="1" parent="1c1d494c118603dd-1" source="aQWnry6ZGIqSMwxMPUUG-24" target="aQWnry6ZGIqSMwxMPUUG-121">
          <mxGeometry relative="1" as="geometry" />
        </mxCell>
        <mxCell id="Zb2ArQLjYNTlfSsmac3W-146" style="edgeStyle=orthogonalEdgeStyle;rounded=0;orthogonalLoop=1;jettySize=auto;html=1;entryX=0.75;entryY=0;entryDx=0;entryDy=0;" edge="1" parent="1c1d494c118603dd-1">
          <mxGeometry relative="1" as="geometry">
            <mxPoint x="720.0000000000005" y="200" as="sourcePoint" />
            <mxPoint x="1078.2500000000005" y="620" as="targetPoint" />
            <Array as="points">
              <mxPoint x="720" y="370" />
              <mxPoint x="1078" y="370" />
            </Array>
          </mxGeometry>
        </mxCell>
        <mxCell id="Zb2ArQLjYNTlfSsmac3W-147" style="edgeStyle=orthogonalEdgeStyle;rounded=0;orthogonalLoop=1;jettySize=auto;html=1;entryX=0.632;entryY=-0.021;entryDx=0;entryDy=0;entryPerimeter=0;" edge="1" parent="1c1d494c118603dd-1">
          <mxGeometry relative="1" as="geometry">
            <mxPoint x="802.5" y="650" as="sourcePoint" />
            <mxPoint x="1055.9040000000005" y="619.7900000000001" as="targetPoint" />
            <Array as="points">
              <mxPoint x="881" y="650" />
              <mxPoint x="881" y="390" />
              <mxPoint x="1056" y="390" />
            </Array>
          </mxGeometry>
        </mxCell>
        <mxCell id="Zb2ArQLjYNTlfSsmac3W-148" style="edgeStyle=orthogonalEdgeStyle;rounded=0;orthogonalLoop=1;jettySize=auto;html=1;entryX=0.401;entryY=-0.045;entryDx=0;entryDy=0;entryPerimeter=0;" edge="1" parent="1c1d494c118603dd-1">
          <mxGeometry relative="1" as="geometry">
            <mxPoint x="827.5" y="970.0144927536232" as="sourcePoint" />
            <mxPoint x="1031.9470000000001" y="619.5500000000001" as="targetPoint" />
            <Array as="points">
              <mxPoint x="891" y="970" />
              <mxPoint x="891" y="410" />
              <mxPoint x="1032" y="410" />
            </Array>
          </mxGeometry>
        </mxCell>
        <mxCell id="Zb2ArQLjYNTlfSsmac3W-149" style="edgeStyle=orthogonalEdgeStyle;rounded=0;orthogonalLoop=1;jettySize=auto;html=1;entryX=0.25;entryY=0;entryDx=0;entryDy=0;" edge="1" parent="1c1d494c118603dd-1">
          <mxGeometry relative="1" as="geometry">
            <mxPoint x="835.5" y="1340.017543859649" as="sourcePoint" />
            <mxPoint x="1007.75" y="620" as="targetPoint" />
            <Array as="points">
              <mxPoint x="901" y="1340" />
              <mxPoint x="901" y="430" />
              <mxPoint x="1008" y="430" />
            </Array>
          </mxGeometry>
        </mxCell>
        <mxCell id="Zb2ArQLjYNTlfSsmac3W-150" style="edgeStyle=orthogonalEdgeStyle;rounded=0;orthogonalLoop=1;jettySize=auto;html=1;entryX=0.116;entryY=-0.095;entryDx=0;entryDy=0;entryPerimeter=0;" edge="1" parent="1c1d494c118603dd-1">
          <mxGeometry relative="1" as="geometry">
            <mxPoint x="825" y="1710" as="sourcePoint" />
            <mxPoint x="985.0520000000001" y="619.0500000000001" as="targetPoint" />
            <Array as="points">
              <mxPoint x="911" y="1710" />
              <mxPoint x="911" y="450" />
              <mxPoint x="985" y="450" />
            </Array>
          </mxGeometry>
        </mxCell>
        <mxCell id="hRGTFAAXsXebKbY3N1nc-31" value="Level 5" style="swimlane;html=1;startSize=20;" vertex="1" parent="1c1d494c118603dd-1">
          <mxGeometry x="1147" y="110" width="280" height="1820" as="geometry">
            <mxRectangle x="500" y="20" width="40" height="970" as="alternateBounds" />
          </mxGeometry>
        </mxCell>
        <mxCell id="Zb2ArQLjYNTlfSsmac3W-154" style="edgeStyle=orthogonalEdgeStyle;rounded=0;orthogonalLoop=1;jettySize=auto;html=1;" edge="1" parent="hRGTFAAXsXebKbY3N1nc-31" source="aQWnry6ZGIqSMwxMPUUG-1">
          <mxGeometry relative="1" as="geometry">
            <mxPoint x="139" y="810" as="targetPoint" />
            <Array as="points" />
          </mxGeometry>
        </mxCell>
        <mxCell id="aQWnry6ZGIqSMwxMPUUG-1" value="&lt;div&gt;Knowlodeg/&lt;/div&gt;&lt;div&gt;Publication&lt;br&gt;&lt;/div&gt;" style="html=1;whiteSpace=wrap;" vertex="1" parent="hRGTFAAXsXebKbY3N1nc-31">
          <mxGeometry x="85" y="40" width="110" height="50" as="geometry" />
        </mxCell>
        <mxCell id="Zb2ArQLjYNTlfSsmac3W-115" value="Theme: Knowledge L5" style="swimlane;fontStyle=0;childLayout=stackLayout;horizontal=1;startSize=30;horizontalStack=0;resizeParent=1;resizeParentMax=0;resizeLast=0;collapsible=1;marginBottom=0;whiteSpace=wrap;html=1;" vertex="1" parent="hRGTFAAXsXebKbY3N1nc-31">
          <mxGeometry x="70" y="1270" width="140" height="60" as="geometry">
            <mxRectangle x="70" y="365" width="100" height="30" as="alternateBounds" />
          </mxGeometry>
        </mxCell>
        <mxCell id="Zb2ArQLjYNTlfSsmac3W-116" value="Item:&amp;nbsp;&lt;span style=&quot;background-color: initial;&quot;&gt;H5&lt;/span&gt;" style="text;strokeColor=none;fillColor=none;align=left;verticalAlign=middle;spacingLeft=4;spacingRight=4;overflow=hidden;points=[[0,0.5],[1,0.5]];portConstraint=eastwest;rotatable=0;whiteSpace=wrap;html=1;" vertex="1" parent="Zb2ArQLjYNTlfSsmac3W-115">
          <mxGeometry y="30" width="140" height="30" as="geometry" />
        </mxCell>
        <mxCell id="Zb2ArQLjYNTlfSsmac3W-117" value="Action" style="rounded=1;whiteSpace=wrap;html=1;shadow=0;comic=0;labelBackgroundColor=none;strokeWidth=1;fontFamily=Verdana;fontSize=12;align=center;arcSize=50;" vertex="1" parent="hRGTFAAXsXebKbY3N1nc-31">
          <mxGeometry x="66.5" y="900" width="100" height="30" as="geometry" />
        </mxCell>
        <mxCell id="Zb2ArQLjYNTlfSsmac3W-118" value="Note" style="shape=note;whiteSpace=wrap;html=1;rounded=0;shadow=0;comic=0;labelBackgroundColor=none;strokeWidth=1;fontFamily=Verdana;fontSize=12;align=center;size=20;" vertex="1" parent="hRGTFAAXsXebKbY3N1nc-31">
          <mxGeometry x="173" y="970" width="80" height="46.93" as="geometry" />
        </mxCell>
        <mxCell id="Zb2ArQLjYNTlfSsmac3W-119" value="" style="endArrow=none;dashed=1;html=1;dashPattern=1 3;strokeWidth=2;rounded=0;entryX=0.75;entryY=1;entryDx=0;entryDy=0;exitX=0.5;exitY=0;exitDx=0;exitDy=0;exitPerimeter=0;" edge="1" parent="hRGTFAAXsXebKbY3N1nc-31" source="Zb2ArQLjYNTlfSsmac3W-118" target="Zb2ArQLjYNTlfSsmac3W-117">
          <mxGeometry width="50" height="50" relative="1" as="geometry">
            <mxPoint x="186.5" y="1120" as="sourcePoint" />
            <mxPoint x="216.5" y="1060" as="targetPoint" />
          </mxGeometry>
        </mxCell>
        <mxCell id="Zb2ArQLjYNTlfSsmac3W-120" value="" style="endArrow=none;dashed=1;html=1;dashPattern=1 3;strokeWidth=2;rounded=0;entryX=0.5;entryY=1;entryDx=0;entryDy=0;entryPerimeter=0;exitX=1;exitY=0.25;exitDx=0;exitDy=0;" edge="1" parent="hRGTFAAXsXebKbY3N1nc-31" source="Zb2ArQLjYNTlfSsmac3W-123" target="Zb2ArQLjYNTlfSsmac3W-118">
          <mxGeometry width="50" height="50" relative="1" as="geometry">
            <mxPoint x="136.5" y="1150" as="sourcePoint" />
            <mxPoint x="186.5" y="1100" as="targetPoint" />
          </mxGeometry>
        </mxCell>
        <mxCell id="Zb2ArQLjYNTlfSsmac3W-121" value="" style="endArrow=classic;html=1;rounded=0;exitX=0.395;exitY=1.016;exitDx=0;exitDy=0;entryX=0.5;entryY=0;entryDx=0;entryDy=0;exitPerimeter=0;" edge="1" parent="hRGTFAAXsXebKbY3N1nc-31" source="Zb2ArQLjYNTlfSsmac3W-117" target="Zb2ArQLjYNTlfSsmac3W-123">
          <mxGeometry width="50" height="50" relative="1" as="geometry">
            <mxPoint x="106.5" y="970" as="sourcePoint" />
            <mxPoint x="156.5" y="920" as="targetPoint" />
          </mxGeometry>
        </mxCell>
        <mxCell id="Zb2ArQLjYNTlfSsmac3W-122" value="" style="endArrow=classic;html=1;rounded=0;exitX=0.5;exitY=1;exitDx=0;exitDy=0;entryX=0.5;entryY=0;entryDx=0;entryDy=0;" edge="1" parent="hRGTFAAXsXebKbY3N1nc-31" source="Zb2ArQLjYNTlfSsmac3W-123" target="Zb2ArQLjYNTlfSsmac3W-115">
          <mxGeometry width="50" height="50" relative="1" as="geometry">
            <mxPoint x="136.5" y="1240" as="sourcePoint" />
            <mxPoint x="146.5" y="1320" as="targetPoint" />
          </mxGeometry>
        </mxCell>
        <mxCell id="Zb2ArQLjYNTlfSsmac3W-123" value="工具91&lt;div&gt;Analysis&lt;br&gt;&lt;/div&gt;" style="rounded=0;whiteSpace=wrap;html=1;shadow=0;comic=0;labelBackgroundColor=none;strokeWidth=1;fontFamily=Verdana;fontSize=12;align=center;arcSize=50;" vertex="1" parent="hRGTFAAXsXebKbY3N1nc-31">
          <mxGeometry x="20" y="1060" width="70" height="30" as="geometry" />
        </mxCell>
        <mxCell id="Zb2ArQLjYNTlfSsmac3W-152" style="edgeStyle=orthogonalEdgeStyle;rounded=0;orthogonalLoop=1;jettySize=auto;html=1;exitX=0.75;exitY=0;exitDx=0;exitDy=0;entryX=0.5;entryY=0;entryDx=0;entryDy=0;" edge="1" parent="hRGTFAAXsXebKbY3N1nc-31" source="Zb2ArQLjYNTlfSsmac3W-123" target="Zb2ArQLjYNTlfSsmac3W-123">
          <mxGeometry relative="1" as="geometry" />
        </mxCell>
        <mxCell id="Zb2ArQLjYNTlfSsmac3W-155" style="edgeStyle=orthogonalEdgeStyle;rounded=0;orthogonalLoop=1;jettySize=auto;html=1;entryX=0.5;entryY=0;entryDx=0;entryDy=0;" edge="1" parent="hRGTFAAXsXebKbY3N1nc-31" source="Zb2ArQLjYNTlfSsmac3W-153" target="Zb2ArQLjYNTlfSsmac3W-117">
          <mxGeometry relative="1" as="geometry" />
        </mxCell>
        <mxCell id="Zb2ArQLjYNTlfSsmac3W-153" value="" style="whiteSpace=wrap;html=1;rounded=0;shadow=0;comic=0;labelBackgroundColor=none;strokeWidth=1;fillColor=#000000;fontFamily=Verdana;fontSize=12;align=center;rotation=0;" vertex="1" parent="hRGTFAAXsXebKbY3N1nc-31">
          <mxGeometry x="43" y="810" width="147" height="10" as="geometry" />
        </mxCell>
      </root>
    </mxGraphModel>
  </diagram>
</mxfile>
